<svg id="SvgjsSvg1050" width="288" height="288" xmlns="http://www.w3.org/2000/svg" version="1.1" xmlns:xlink="http://www.w3.org/1999/xlink" xmlns:svgjs="http://svgjs.com/svgjs"><defs id="SvgjsDefs1051"></defs><g id="SvgjsG1052" transform="matrix(1,0,0,1,0,0)"><svg xmlns="http://www.w3.org/2000/svg" viewBox="0 0 24 24" width="288" height="288"><polygon fill="#ffffff" points="18 22 5 22 2 19 2 2 18 2 18 22" class="colorfff svgShape"></polygon><polygon fill="#0078f0" points="6 22 2 18 6 18 6 22" class="color0084f0 svgShape"></polygon><path fill="#002d5b" d="M1,1V19.41L4.59,23H19V1ZM17,21H5.41L3,18.59V3H17Z" class="color292932 svgShape"></path><rect width="8" height="2" x="5" y="5" fill="#002d5b" class="color292932 svgShape"></rect><rect width="10" height="2" x="5" y="9" fill="#002d5b" class="color292932 svgShape"></rect><rect width="6" height="2" x="5" y="13" fill="#002d5b" class="color292932 svgShape"></rect><polygon fill="#aed6ff" points="12.39 17.61 13.1 15.48 21.59 7 23 8.41 14.52 16.9 12.39 17.61" class="colorb9d9f4 svgShape"></polygon></svg></g></svg>